<svg width="22" height="21" viewBox="0 0 22 21" fill="none" xmlns="http://www.w3.org/2000/svg">
  <path fill-rule="evenodd" clip-rule="evenodd" d="M13.7434 4.54103C16.2807 7.00365 16.2807 10.9963 13.7434 13.459C11.2062 15.9216 7.09249 15.9216 4.55524 13.459C2.01799 10.9963 2.01799 7.00365 4.55524 4.54103C7.09249 2.07841 11.2062 2.07841 13.7434 4.54103ZM15.8529 14.1157C18.4908 10.8677 18.2661 6.14474 15.1786 3.14808C11.8487 -0.083843 6.44995 -0.083843 3.12008 3.14808C-0.209788 6.38001 -0.209788 11.62 3.12008 14.8519C6.20756 17.8486 11.0737 18.0667 14.4201 15.5063C14.4333 15.5206 14.4469 15.5347 14.4611 15.5484L19.2845 20.2299C19.6808 20.6146 20.3233 20.6146 20.7196 20.2299C21.1159 19.8453 21.1159 19.2216 20.7196 18.837L15.8962 14.1554C15.8821 14.1417 15.8676 14.1285 15.8529 14.1157Z" fill="#444444"/>
</svg>
